<svg width="18" height="18" viewBox="0 0 18 18" fill="none" xmlns="http://www.w3.org/2000/svg">
<path d="M9.00492 0.670013C4.40163 0.670013 0.669922 4.40172 0.669922 9.00501C0.669922 13.6083 4.40163 17.34 9.00492 17.34C13.6082 17.34 17.3399 13.6083 17.3399 9.00501C17.3399 4.40172 13.6082 0.670013 9.00492 0.670013ZM6.02026 5.49142C6.78151 5.49142 7.45786 5.75462 7.95591 6.14935C8.41647 6.51579 8.63218 6.88234 8.82036 7.21133L7.50523 7.8684C7.41114 7.65266 7.29794 7.42695 7.00722 7.18291C6.68746 6.9289 6.3684 6.854 6.09524 6.854C5.02424 6.854 4.46039 7.85007 4.46039 8.9586C4.46039 10.4152 5.20323 11.1381 6.09524 11.1381C6.95977 11.1381 7.30783 10.5368 7.53276 10.1521L8.83947 10.8192C8.59465 11.204 8.35976 11.5804 7.83344 11.9461C7.55191 12.1434 6.9039 12.5291 5.98281 12.5291C4.22554 12.5291 2.80717 11.2514 2.80717 9.0052C2.80717 7.04214 4.14137 5.49142 6.02026 5.49142ZM8.94659 5.69798H10.713L12.0847 10.4152L13.4465 5.69798H15.2129L12.9109 12.3316H11.2202L8.94659 5.69798Z" fill="white"/>
</svg>
