<svg width="20" height="20" viewBox="0 0 20 20" fill="none" xmlns="http://www.w3.org/2000/svg">
<path d="M10.0003 1.67004C5.40033 1.67004 1.66699 5.40338 1.66699 10.0034C1.66699 14.6034 5.40033 18.3367 10.0003 18.3367H14.167V16.67H10.0003C6.38366 16.67 3.33366 13.62 3.33366 10.0034C3.33366 6.38671 6.38366 3.33671 10.0003 3.33671C13.617 3.33671 16.667 6.38671 16.667 10.0034V11.195C16.667 11.8534 16.0753 12.5034 15.417 12.5034C14.7587 12.5034 14.167 11.8534 14.167 11.195V10.0034C14.167 7.70338 12.3003 5.83671 10.0003 5.83671C7.70033 5.83671 5.83366 7.70338 5.83366 10.0034C5.83366 12.3034 7.70033 14.17 10.0003 14.17C11.1503 14.17 12.2003 13.7034 12.9503 12.945C13.492 13.6867 14.4253 14.17 15.417 14.17C17.0587 14.17 18.3337 12.8367 18.3337 11.195V10.0034C18.3337 5.40338 14.6003 1.67004 10.0003 1.67004ZM10.0003 12.5034C8.61699 12.5034 7.50033 11.3867 7.50033 10.0034C7.50033 8.62004 8.61699 7.50338 10.0003 7.50338C11.3837 7.50338 12.5003 8.62004 12.5003 10.0034C12.5003 11.3867 11.3837 12.5034 10.0003 12.5034Z" fill="white"/>
</svg>
