<svg width="144" height="110" viewBox="0 0 144 110" fill="none" xmlns="http://www.w3.org/2000/svg">
<path d="M1 85.5L0.29191 85.2528C0.222023 85.453 0.240137 85.6734 0.34177 85.8595C0.443403 86.0456 0.619057 86.18 0.825258 86.2294L1 85.5ZM30.5 1L30.6056 0.257472C30.2509 0.207022 29.91 0.414522 29.7919 0.752797L30.5 1ZM143 17L143.67 17.3369C143.779 17.1211 143.777 16.8664 143.665 16.6524C143.553 16.4385 143.345 16.2915 143.106 16.2575L143 17ZM97 108.5L96.8253 109.229C97.1638 109.31 97.5137 109.148 97.6701 108.837L97 108.5ZM44.5 64.5158L44.8259 65.1914L44.5 64.5158ZM1.70809 85.7472L31.2081 1.2472L29.7919 0.752797L0.29191 85.2528L1.70809 85.7472ZM30.3944 1.74253L142.894 17.7425L143.106 16.2575L30.6056 0.257472L30.3944 1.74253ZM142.33 16.6631L96.3299 108.163L97.6701 108.837L143.67 17.3369L142.33 16.6631ZM97.1747 107.771L1.17474 84.7706L0.825258 86.2294L96.8253 109.229L97.1747 107.771ZM1.0562 86.2479L87.5562 79.7479L87.4438 78.2521L0.9438 84.7521L1.0562 86.2479ZM88.0588 79.5002L143.559 17.5002L142.441 16.4998L86.9412 78.4998L88.0588 79.5002ZM97.7139 108.27L88.2139 78.7701L86.7861 79.2299L96.2861 108.73L97.7139 108.27ZM88.1055 78.5575L31.1055 0.557488L29.8945 1.44251L86.8945 79.4425L88.1055 78.5575ZM1.32586 86.1755L44.8259 65.1914L44.1741 63.8403L0.674138 84.8245L1.32586 86.1755ZM44.8259 65.1914L143.326 17.6755L142.674 16.3245L44.1741 63.8403L44.8259 65.1914ZM29.7676 1.16144L43.7676 64.6773L45.2324 64.3544L31.2324 0.838562L29.7676 1.16144Z" fill="white"/>
</svg>
