<svg width="32" height="32" viewBox="0 0 32 32" fill="none" xmlns="http://www.w3.org/2000/svg">
<g id="fe:git">
<g id="feGit0">
<g id="feGit1">
<path id="feGit2" fill-rule="evenodd" clip-rule="evenodd" d="M28.8311 14.813L17.1871 3.1677C16.8651 2.84584 16.4284 2.66504 15.9731 2.66504C15.5178 2.66504 15.0811 2.84584 14.7591 3.1677L12.3418 5.5877L15.4084 8.65436C15.77 8.53174 16.1588 8.51306 16.5304 8.60043C16.9021 8.68781 17.2418 8.87775 17.5109 9.14863C17.78 9.41952 17.9676 9.76048 18.0525 10.1327C18.1374 10.505 18.1161 10.8936 17.9911 11.2544L20.9471 14.2104C21.3888 14.0585 21.8692 14.0627 22.3083 14.2221C22.7473 14.3815 23.1185 14.6866 23.3598 15.0865C23.6012 15.4864 23.6983 15.9569 23.6348 16.4197C23.5713 16.8824 23.3512 17.3094 23.0111 17.6296C22.6709 17.9497 22.2313 18.1436 21.7656 18.1789C21.2998 18.2142 20.8361 18.0889 20.4515 17.8237C20.067 17.5586 19.7849 17.1696 19.6524 16.7218C19.5198 16.2739 19.5448 15.7941 19.7231 15.3624L16.9658 12.605V19.8597C17.3847 20.067 17.72 20.4116 17.9156 20.8362C18.1113 21.2607 18.1555 21.7394 18.0409 22.1926C17.9264 22.6458 17.66 23.046 17.2861 23.3266C16.9122 23.6071 16.4535 23.7511 15.9863 23.7344C15.5192 23.7177 15.0719 23.5414 14.719 23.2349C14.366 22.9284 14.1288 22.5102 14.0469 22.05C13.965 21.5898 14.0432 21.1154 14.2687 20.7059C14.4941 20.2964 14.8531 19.9766 15.2858 19.7997V12.4797C15.0362 12.3775 14.8094 12.2268 14.6184 12.0365C14.4274 11.8462 14.276 11.6199 14.1728 11.3708C14.0697 11.1216 14.0169 10.8545 14.0176 10.5849C14.0182 10.3152 14.0722 10.0484 14.1764 9.7997L11.1538 6.77436L3.16976 14.757C2.84783 15.0793 2.66699 15.5162 2.66699 15.9717C2.66699 16.4272 2.84783 16.8641 3.16976 17.1864L14.8138 28.829C15.1358 29.1509 15.5725 29.3317 16.0278 29.3317C16.4831 29.3317 16.9197 29.1509 17.2418 28.829L28.8311 17.2397C28.9907 17.0802 29.1172 16.8909 29.2036 16.6824C29.29 16.474 29.3344 16.2506 29.3344 16.025C29.3344 15.7994 29.29 15.576 29.2036 15.3676C29.1172 15.1592 28.9907 14.9698 28.8311 14.8104" fill="white"/>
</g>
</g>
</g>
</svg>
