<svg width="32" height="32" viewBox="0 0 32 32" fill="none" xmlns="http://www.w3.org/2000/svg">
<g id="mdi:github">
<path id="Vector" d="M16.0003 2.66699C14.2494 2.66699 12.5156 3.01187 10.8979 3.68193C9.2802 4.35199 7.81035 5.33412 6.57224 6.57224C4.07175 9.07272 2.66699 12.4641 2.66699 16.0003C2.66699 21.8937 6.49366 26.8937 11.787 28.667C12.4537 28.7737 12.667 28.3603 12.667 28.0003V25.747C8.97366 26.547 8.18699 23.9603 8.18699 23.9603C7.57366 22.4137 6.70699 22.0003 6.70699 22.0003C5.49366 21.1737 6.80033 21.2003 6.80033 21.2003C8.13366 21.2937 8.84033 22.5737 8.84033 22.5737C10.0003 24.6003 11.9603 24.0003 12.7203 23.6803C12.8403 22.8137 13.187 22.227 13.5603 21.8937C10.6003 21.5603 7.49366 20.4137 7.49366 15.3337C7.49366 13.8537 8.00033 12.667 8.86699 11.7203C8.73366 11.387 8.26699 10.0003 9.00033 8.20033C9.00033 8.20033 10.1203 7.84033 12.667 9.56033C13.7203 9.26699 14.867 9.12033 16.0003 9.12033C17.1337 9.12033 18.2803 9.26699 19.3337 9.56033C21.8803 7.84033 23.0003 8.20033 23.0003 8.20033C23.7337 10.0003 23.267 11.387 23.1337 11.7203C24.0003 12.667 24.507 13.8537 24.507 15.3337C24.507 20.427 21.387 21.547 18.4137 21.8803C18.8937 22.2937 19.3337 23.107 19.3337 24.347V28.0003C19.3337 28.3603 19.547 28.787 20.227 28.667C25.5203 26.8803 29.3337 21.8937 29.3337 16.0003C29.3337 14.2494 28.9888 12.5156 28.3187 10.8979C27.6487 9.2802 26.6665 7.81035 25.4284 6.57224C24.1903 5.33412 22.7204 4.35199 21.1028 3.68193C19.4851 3.01187 17.7513 2.66699 16.0003 2.66699Z" fill="white"/>
</g>
</svg>
