<svg width="32" height="32" viewBox="0 0 32 32" fill="none" xmlns="http://www.w3.org/2000/svg">
<g id="mdi:jquery">
<path id="Vector" d="M30.5067 13.8801C29.1512 15.0126 27.402 15.5615 25.6425 15.4065C23.883 15.2516 22.2567 14.4054 21.12 13.0534C18.7467 10.2267 19.12 6.00006 21.9333 3.66673L22.6133 3.16006C21.5101 4.35625 20.8801 5.9131 20.8408 7.53986C20.8016 9.16662 21.3558 10.7521 22.4 12.0001C24.5733 14.5867 28.3333 15.0934 31.12 13.2934L30.5067 13.8801ZM28.1333 19.3334C27.1294 20.1799 25.9683 20.8198 24.7164 21.2164C23.4646 21.6131 22.1468 21.7586 20.8386 21.6446C19.5303 21.5306 18.2575 21.1594 17.0931 20.5523C15.9288 19.9452 14.8957 19.1141 14.0533 18.1067C10.4933 13.8801 11.0533 7.5734 15.28 4.00006L16.5067 3.14673C14.9228 4.94088 14.0354 7.24394 14.0061 9.63703C13.9767 12.0301 14.8073 14.3543 16.3467 16.1867C19.5733 20.0001 25.0667 20.8401 29.2133 18.2934L28.1333 19.3334ZM26.6267 25.8401C20.7067 30.8134 11.8667 30.0401 6.89334 24.1067C1.93334 18.1867 2.70667 9.3334 8.62667 4.38673L10.1067 3.3334C5.42667 8.40006 5.13334 16.3067 9.70667 21.7601C14.28 27.2001 22.12 28.2934 27.9467 24.5734L26.6267 25.8401Z" fill="white"/>
</g>
</svg>
