<svg width="20" height="20" viewBox="0 0 20 20" fill="none" xmlns="http://www.w3.org/2000/svg">
<path d="M11.5002 2.03621C10.7992 2.03879 10.1026 2.10785 9.43432 2.2216C6.04654 2.79816 4.13697 4.31015 3.10658 6.43347C4.32592 6.3384 5.52854 6.23722 6.699 6.24449C7.64096 6.25035 8.56213 6.3264 9.45447 6.53238C10.0463 6.6691 10.4174 7.18265 10.5329 7.77203C10.6483 8.3614 10.5664 9.05797 10.3354 9.78582L10.3242 9.82113L10.3059 9.85339C10.0027 10.3862 9.35814 10.8103 8.53658 11.2594C7.71502 11.7085 6.71256 12.1459 5.71354 12.5261C4.71455 12.9064 3.72088 13.2285 2.91764 13.4416C2.63428 13.5168 2.37662 13.5776 2.14674 13.6236C2.23561 14.8396 2.40307 16.0993 2.6158 17.3728C8.08916 15.8786 13.2994 14.2521 18.3779 12.5582C19.391 10.8216 19.5469 9.18129 19.0407 7.60761C18.166 4.88867 16.6618 3.42605 14.9307 2.67918C13.8488 2.21238 12.6685 2.03191 11.5003 2.03621H11.5002ZM5.08565 7.00019C4.73174 7.02011 4.37217 7.04535 4.01018 7.07191L2.31713 12.8666C2.44932 12.8358 2.58807 12.8017 2.73721 12.7621C2.90262 12.7179 3.06747 12.6716 3.23174 12.6233C3.62322 11.4096 4.92315 7.48984 5.08565 7.00019ZM3.26143 7.12761C2.83689 7.15988 2.40893 7.19222 1.97596 7.22019C1.96346 7.23757 1.94807 7.25718 1.92447 7.30875C1.86275 7.44351 1.79264 7.67664 1.7326 7.96203C1.61248 8.53281 1.52283 9.31855 1.47068 10.1057C1.41861 10.8928 1.40311 11.6853 1.42408 12.2768C1.43455 12.5726 1.45494 12.82 1.48041 12.9784C1.48229 12.9903 1.48346 12.9906 1.48549 13.0014C1.50346 13.0011 1.52584 12.9997 1.54588 12.9989L3.26143 7.12761ZM8.75033 7.14843C8.14111 7.14843 7.6308 7.63992 7.6308 8.24812C7.6308 8.85632 8.14111 9.34793 8.75033 9.34793C9.35955 9.34793 9.86986 8.85636 9.86986 8.24812C9.86986 7.63992 9.35955 7.14843 8.75033 7.14843ZM8.75033 7.85156C8.98939 7.85156 9.16674 8.02996 9.16674 8.24812C9.16674 8.46632 8.98939 8.6448 8.75033 8.6448C8.51127 8.6448 8.33393 8.46629 8.33393 8.24812C8.33393 8.02996 8.51127 7.85156 8.75033 7.85156ZM17.7421 13.5103C12.9059 15.1114 7.94115 16.6496 2.73682 18.0687C2.75295 18.1593 2.76846 18.2496 2.78494 18.3402C8.55084 17.2991 12.7839 15.6462 17.2912 14.0759C17.4472 13.8919 17.5976 13.7033 17.7422 13.5103L17.7421 13.5103Z" fill="white"/>
</svg>
