<svg width="20" height="20" viewBox="0 0 20 20" fill="none" xmlns="http://www.w3.org/2000/svg">
<path d="M13.9776 12.21L13.0939 11.3262L14.8614 9.55749C16.3264 8.09374 16.5239 5.91749 15.3039 4.69624C14.0826 3.47624 11.9064 3.67374 10.4414 5.13874L8.67513 6.90624L7.79138 6.02249L9.55888 4.25499C11.5126 2.30249 14.4801 2.10499 16.1889 3.81249C17.8976 5.52124 17.6989 8.48874 15.7464 10.4425L13.9789 12.21H13.9776ZM12.2101 13.9775L10.4426 15.745C8.48888 17.6975 5.52138 17.895 3.81263 16.1875C2.10388 14.4787 2.30263 11.5112 4.25513 9.55749L6.02263 7.78999L6.90638 8.67374L5.13888 10.4425C3.67388 11.9062 3.47638 14.0825 4.69638 15.3037C5.91763 16.5237 8.09388 16.3262 9.55888 14.8612L11.3264 13.0937L12.2101 13.9775ZM12.2101 6.90624L13.0939 7.78999L7.79013 13.0937L6.90638 12.21L12.2101 6.90624Z" fill="white"/>
</svg>
