<svg width="32" height="32" viewBox="0 0 32 32" fill="none" xmlns="http://www.w3.org/2000/svg">
<g id="cib:js">
<path id="Vector" d="M3 3V29H29V3H3ZM17.1496 23.2772C17.1496 25.8076 15.6639 26.9627 13.4994 26.9627C11.5438 26.9627 10.4119 25.9534 9.8315 24.7286L11.8224 23.527C12.2059 24.2058 12.5541 24.7806 13.3954 24.7806C14.1958 24.7806 14.7065 24.4667 14.7065 23.2429V14.9377H17.1496V23.2772ZM22.929 26.9627C20.6596 26.9627 19.1915 25.8837 18.4774 24.4667L20.4683 23.3181C20.9911 24.1714 21.6754 24.8038 22.877 24.8038C23.8864 24.8038 24.5373 24.2986 24.5373 23.5966C24.5373 22.7609 23.8752 22.4647 22.7554 21.9716L22.1462 21.7107C20.3819 20.9623 19.2156 20.0161 19.2156 18.0252C19.2156 16.1913 20.6141 14.7984 22.7906 14.7984C24.346 14.7984 25.4603 15.3379 26.2616 16.754L24.3581 17.9732C23.9402 17.2248 23.4871 16.9286 22.7851 16.9286C22.0719 16.9286 21.6188 17.3817 21.6188 17.9732C21.6188 18.7049 22.0719 19.0002 23.1221 19.4589L23.7313 19.7199C25.8094 20.6076 26.9757 21.5194 26.9757 23.5614C26.9757 25.7556 25.2458 26.9618 22.9299 26.9618L22.929 26.9627Z" fill="white"/>
</g>
</svg>
