<svg width="6" height="84" viewBox="0 0 6 84" fill="none" xmlns="http://www.w3.org/2000/svg">
<path d="M3.5 1C3.5 0.723858 3.27614 0.5 3 0.5C2.72386 0.5 2.5 0.723858 2.5 1L3.5 1ZM3 78.3333C1.52724 78.3333 0.33333 79.5272 0.33333 81C0.33333 82.4728 1.52724 83.6667 3 83.6667C4.47276 83.6667 5.66666 82.4728 5.66666 81C5.66666 79.5272 4.47276 78.3333 3 78.3333ZM2.5 3C2.5 3.27614 2.72386 3.5 3 3.5C3.27614 3.5 3.5 3.27614 3.5 3L2.5 3ZM3.5 7C3.5 6.72386 3.27614 6.5 3 6.5C2.72386 6.5 2.5 6.72386 2.5 7L3.5 7ZM2.5 11C2.5 11.2761 2.72386 11.5 3 11.5C3.27614 11.5 3.5 11.2761 3.5 11L2.5 11ZM3.5 15C3.5 14.7239 3.27614 14.5 3 14.5C2.72386 14.5 2.5 14.7239 2.5 15L3.5 15ZM2.5 19C2.5 19.2761 2.72386 19.5 3 19.5C3.27614 19.5 3.5 19.2761 3.5 19L2.5 19ZM3.5 23C3.5 22.7239 3.27614 22.5 3 22.5C2.72386 22.5 2.5 22.7239 2.5 23L3.5 23ZM2.5 27C2.5 27.2761 2.72386 27.5 3 27.5C3.27614 27.5 3.5 27.2761 3.5 27L2.5 27ZM3.5 31C3.5 30.7239 3.27614 30.5 3 30.5C2.72386 30.5 2.5 30.7239 2.5 31L3.5 31ZM2.5 35C2.5 35.2761 2.72386 35.5 3 35.5C3.27614 35.5 3.5 35.2761 3.5 35L2.5 35ZM3.5 39C3.5 38.7239 3.27614 38.5 3 38.5C2.72386 38.5 2.5 38.7239 2.5 39L3.5 39ZM2.5 43C2.5 43.2761 2.72386 43.5 3 43.5C3.27614 43.5 3.5 43.2761 3.5 43L2.5 43ZM3.5 47C3.5 46.7239 3.27614 46.5 3 46.5C2.72386 46.5 2.5 46.7239 2.5 47L3.5 47ZM2.5 51C2.5 51.2761 2.72386 51.5 3 51.5C3.27614 51.5 3.5 51.2761 3.5 51L2.5 51ZM3.5 55C3.5 54.7239 3.27614 54.5 3 54.5C2.72386 54.5 2.5 54.7239 2.5 55L3.5 55ZM2.5 59C2.5 59.2761 2.72386 59.5 3 59.5C3.27614 59.5 3.5 59.2761 3.5 59L2.5 59ZM3.5 63C3.5 62.7239 3.27614 62.5 3 62.5C2.72385 62.5 2.5 62.7239 2.5 63L3.5 63ZM2.5 67C2.5 67.2761 2.72385 67.5 3 67.5C3.27614 67.5 3.5 67.2761 3.5 67L2.5 67ZM3.5 71C3.5 70.7239 3.27614 70.5 3 70.5C2.72385 70.5 2.5 70.7239 2.5 71L3.5 71ZM2.5 75C2.5 75.2761 2.72385 75.5 3 75.5C3.27614 75.5 3.5 75.2761 3.5 75L2.5 75ZM3.5 79C3.5 78.7239 3.27614 78.5 3 78.5C2.72385 78.5 2.5 78.7239 2.5 79L3.5 79ZM2.5 1L2.5 3L3.5 3L3.5 1L2.5 1ZM2.5 7L2.5 11L3.5 11L3.5 7L2.5 7ZM2.5 15L2.5 19L3.5 19L3.5 15L2.5 15ZM2.5 23L2.5 27L3.5 27L3.5 23L2.5 23ZM2.5 31L2.5 35L3.5 35L3.5 31L2.5 31ZM2.5 39L2.5 43L3.5 43L3.5 39L2.5 39ZM2.5 47L2.5 51L3.5 51L3.5 47L2.5 47ZM2.5 55L2.5 59L3.5 59L3.5 55L2.5 55ZM2.5 63L2.5 67L3.5 67L3.5 63L2.5 63ZM2.5 71L2.5 75L3.5 75L3.5 71L2.5 71ZM2.5 79L2.5 81L3.5 81L3.5 79L2.5 79Z" fill="url(#paint0_linear_2577_423)"/>
<defs>
<linearGradient id="paint0_linear_2577_423" x1="2.5" y1="81" x2="2.5" y2="1" gradientUnits="userSpaceOnUse">
<stop stop-color="white"/>
<stop offset="1" stop-color="white" stop-opacity="0"/>
</linearGradient>
</defs>
</svg>
