<svg width="32" height="32" viewBox="0 0 32 32" fill="none" xmlns="http://www.w3.org/2000/svg">
<g id="teenyicons:nodejs-solid">
<path id="Vector" fill-rule="evenodd" clip-rule="evenodd" d="M28.8537 9.50028L16.0006 2L3.14746 9.50028V22.4997L5.13673 23.6605L9.20424 22.0153C9.75161 21.7936 10.2204 21.4136 10.5504 20.9239C10.8805 20.4343 11.0569 19.8572 11.0571 19.2667V9.0791H13.0345V19.2667C13.0343 20.2511 12.7403 21.2131 12.19 22.0293C11.6397 22.8456 10.8583 23.479 9.94577 23.8483L7.29605 24.9201L16.0006 30L28.8537 22.5017V9.50028ZM15.0119 13.0339C15.0119 11.985 15.4285 10.9791 16.1702 10.2374C16.9119 9.49576 17.9178 9.0791 18.9667 9.0791H21.2743C23.2754 9.0791 24.8989 10.7006 24.8989 12.7037V13.0339H22.9215V12.7037C22.9215 12.4874 22.8789 12.2732 22.7961 12.0733C22.7133 11.8735 22.592 11.6919 22.439 11.5389C22.2861 11.386 22.1045 11.2647 21.9046 11.1819C21.7048 11.0991 21.4906 11.0565 21.2743 11.0565H18.9667C18.4422 11.0565 17.9393 11.2648 17.5684 11.6357C17.1976 12.0065 16.9893 12.5095 16.9893 13.0339C16.9893 13.5583 17.1976 14.0613 17.5684 14.4321C17.9393 14.803 18.4422 15.0113 18.9667 15.0113H20.9441C21.993 15.0113 22.9989 15.428 23.7405 16.1696C24.4822 16.9113 24.8989 17.9172 24.8989 18.9661C24.8989 20.015 24.4822 21.0209 23.7405 21.7626C22.9989 22.5042 21.993 22.9209 20.9441 22.9209H18.9667C17.9178 22.9209 16.9119 22.5042 16.1702 21.7626C15.4285 21.0209 15.0119 20.015 15.0119 18.9661H16.9893C16.9893 19.4905 17.1976 19.9935 17.5684 20.3643C17.9393 20.7352 18.4422 20.9435 18.9667 20.9435H20.9441C21.4685 20.9435 21.9715 20.7352 22.3423 20.3643C22.7131 19.9935 22.9215 19.4905 22.9215 18.9661C22.9215 18.4417 22.7131 17.9387 22.3423 17.5679C21.9715 17.197 21.4685 16.9887 20.9441 16.9887H18.9667C17.9178 16.9887 16.9119 16.572 16.1702 15.8304C15.4285 15.0887 15.0119 14.0828 15.0119 13.0339Z" fill="white"/>
</g>
</svg>
