<svg width="20" height="20" viewBox="0 0 20 20" fill="none" xmlns="http://www.w3.org/2000/svg">
<path d="M10.0003 1.66663C5.40033 1.66663 1.66699 5.39996 1.66699 9.99996C1.66699 14.6 5.40033 18.3333 10.0003 18.3333C14.6003 18.3333 18.3337 14.6 18.3337 9.99996C18.3337 5.39996 14.6003 1.66663 10.0003 1.66663ZM13.867 7.33329C13.742 8.64996 13.2003 11.85 12.9253 13.325C12.8087 13.95 12.5753 14.1583 12.3587 14.1833C11.8753 14.225 11.5087 13.8666 11.042 13.5583C10.3087 13.075 9.89199 12.775 9.18366 12.3083C8.35866 11.7666 8.89199 11.4666 9.36699 10.9833C9.49199 10.8583 11.6253 8.91663 11.667 8.74163C11.6728 8.71512 11.672 8.6876 11.6647 8.66146C11.6575 8.63532 11.644 8.61135 11.6253 8.59163C11.5753 8.54996 11.5087 8.56663 11.4503 8.57496C11.3753 8.59163 10.2087 9.36663 7.93366 10.9C7.60033 11.125 7.30033 11.2416 7.03366 11.2333C6.73366 11.225 6.16699 11.0666 5.74199 10.925C5.21699 10.7583 4.80866 10.6666 4.84199 10.375C4.85866 10.225 5.06699 10.075 5.45866 9.91663C7.89199 8.85829 9.50866 8.15829 10.317 7.82496C12.6337 6.85829 13.1087 6.69163 13.4253 6.69163C13.492 6.69163 13.6503 6.70829 13.7503 6.79163C13.8337 6.85829 13.8587 6.94996 13.867 7.01663C13.8587 7.06663 13.8753 7.21663 13.867 7.33329Z" fill="white"/>
</svg>
