<svg width="32" height="32" viewBox="0 0 32 32" fill="none" xmlns="http://www.w3.org/2000/svg">
<g id="typescript 1">
<path id="Vector" d="M3 16V29H29V3H3V16ZM18.7766 24.2615C18.8936 24.1954 19.3302 23.943 19.7429 23.7036L20.4904 23.2703L20.6475 23.5021C20.8663 23.8358 21.3441 24.294 21.6333 24.4468C22.4632 24.8844 23.6018 24.8227 24.1629 24.3189C24.372 24.1423 24.5031 23.8802 24.5031 23.5877C24.5031 23.5703 24.5031 23.5541 24.502 23.5368V23.5389C24.502 23.2378 24.4641 23.1056 24.307 22.8781C24.1055 22.5899 23.6927 22.3472 22.5206 21.8381C21.1794 21.2607 20.602 20.9021 20.0733 20.3323C19.7548 19.9704 19.5089 19.5349 19.3659 19.0561L19.3594 19.0322C19.2608 18.665 19.2359 17.7442 19.3139 17.3737C19.5902 16.0769 20.5684 15.1745 21.98 14.9058C22.4383 14.8192 23.5032 14.8517 23.9528 14.9633C24.6136 15.1279 25.1162 15.4226 25.5788 15.9014C25.8183 16.1571 26.1736 16.6229 26.2017 16.7356C26.2104 16.7681 25.0794 17.5264 24.3948 17.9522C24.3698 17.9684 24.2702 17.8612 24.1597 17.6965C23.8238 17.209 23.4739 16.9988 22.9377 16.962C22.149 16.9078 21.642 17.3206 21.6463 18.0096C21.6463 18.0215 21.6453 18.0356 21.6453 18.0497C21.6453 18.2133 21.6864 18.3671 21.759 18.5014L21.7568 18.496C21.9302 18.8546 22.253 19.0702 23.2627 19.5068C25.1249 20.3084 25.9212 20.836 26.4163 21.5868C26.9688 22.4242 27.0933 23.7621 26.7174 24.7566C26.3057 25.8378 25.282 26.5723 23.8412 26.8149C23.3959 26.894 22.3397 26.8821 21.8608 26.7954C20.8165 26.6091 19.8263 26.0934 19.2153 25.4163C18.9759 25.1531 18.509 24.463 18.5383 24.4143C18.5502 24.3969 18.6574 24.3308 18.7766 24.2615ZM8.69617 16.0704C8.69617 15.4919 8.70808 15.0087 8.72433 14.9979C8.73733 14.9806 10.7968 14.9719 13.2928 14.9763L17.8373 14.9893L17.8492 16.0498L17.8579 17.1148H14.4725V26.7304H12.0783V17.1148H8.69617V16.0704Z" fill="white"/>
</g>
</svg>
