<svg width="32" height="32" viewBox="0 0 32 32" fill="none" xmlns="http://www.w3.org/2000/svg">
<g id="simple-icons:bootstrap">
<path id="Vector" d="M15.7114 15.0461H13.4349V11.2335H16.1356C17.6039 11.2335 18.4372 11.8886 18.4372 13.0733C18.4372 14.3383 17.4671 15.0461 15.7089 15.0461H15.7114ZM16.118 16.5596H13.4362V20.7612H16.236C18.067 20.7612 19.0371 20.0271 19.0371 18.6466C19.0371 17.2661 18.0394 16.5596 16.118 16.5596ZM31.0597 15.2343V16.7629C29.6441 16.8984 28.7794 17.9476 28.2662 19.6092C27.7554 21.2645 27.6851 23.295 27.7391 24.8625C27.7956 26.4939 26.5243 27.9999 24.8062 27.9999H7.19646C5.47715 27.9999 4.20586 26.4939 4.26359 24.8625C4.31756 23.295 4.24728 21.2645 3.7365 19.6092C3.22197 17.9476 2.35604 16.8984 0.94043 16.7629V15.2343C2.35604 15.0988 3.22322 14.0496 3.73525 12.3881C4.24728 10.7327 4.31756 8.7022 4.26234 7.13474C4.20586 5.50328 5.47715 3.99731 7.19646 3.99731H24.8062C26.5255 3.99731 27.7956 5.50328 27.7391 7.13474C27.6851 8.7022 27.7554 10.7327 28.2662 12.3881C28.7794 14.0496 29.6441 15.0988 31.0597 15.2343ZM21.1116 18.7696C21.1116 17.0703 19.9156 15.8417 18.1398 15.6472V15.5757C19.445 15.3636 20.469 14.1513 20.469 12.7984C20.469 10.8695 18.9468 9.61331 16.6263 9.61331H11.4056V22.3789H16.6527C19.4362 22.3789 21.1116 21.016 21.1116 18.7696Z" fill="white"/>
</g>
</svg>
