<svg width="20" height="20" viewBox="0 0 20 20" fill="none" xmlns="http://www.w3.org/2000/svg">
<path d="M9.99955 1.87256C8.02075 1.87251 6.1065 2.57663 4.59936 3.8589C3.09222 5.14117 2.09056 6.9179 1.77362 8.87117C1.45668 10.8244 1.84515 12.8267 2.8695 14.5198C3.89386 16.2128 5.48726 17.4861 7.36455 18.1117C7.78122 18.1851 7.93705 17.9351 7.93705 17.7159C7.93705 17.5184 7.92705 16.8617 7.92705 16.1642C5.83289 16.5492 5.29122 15.6534 5.12455 15.1851C4.93967 14.729 4.6465 14.3249 4.27039 14.0076C3.97872 13.8517 3.56205 13.4659 4.25955 13.4559C4.52612 13.4847 4.7818 13.5774 5.00492 13.7261C5.22803 13.8748 5.412 14.0751 5.54122 14.3101C5.65516 14.5148 5.80838 14.695 5.99211 14.8404C6.17583 14.9858 6.38644 15.0936 6.61187 15.1574C6.8373 15.2213 7.07312 15.2401 7.30581 15.2126C7.5385 15.1852 7.76349 15.1121 7.96789 14.9976C8.00398 14.5737 8.19294 14.1774 8.49955 13.8826C6.64539 13.6742 4.70789 12.9559 4.70789 9.76839C4.69608 8.94004 5.0017 8.13857 5.56205 7.52839C5.30731 6.80857 5.33712 6.01863 5.64539 5.32006C5.64539 5.32006 6.34289 5.10173 7.93705 6.17423C9.30062 5.79918 10.7401 5.79918 12.1037 6.17423C13.6971 5.09089 14.3954 5.32006 14.3954 5.32006C14.7037 6.01861 14.7335 6.80859 14.4787 7.52839C15.0408 8.13752 15.3467 8.93969 15.3329 9.76839C15.3329 12.9659 13.3846 13.6742 11.5304 13.8826C11.7293 14.0841 11.8824 14.3261 11.9795 14.5921C12.0766 14.8582 12.1152 15.1419 12.0929 15.4242C12.0929 16.5392 12.0829 17.4351 12.0829 17.7159C12.0829 17.9351 12.2387 18.1951 12.6554 18.1117C14.5292 17.4808 16.1179 16.2045 17.1377 14.5107C18.1576 12.8168 18.5423 10.8156 18.2232 8.86438C17.9041 6.91311 16.9019 5.13875 15.3956 3.85804C13.8892 2.57733 11.9767 1.87363 9.99955 1.87256Z" fill="white"/>
</svg>
