<svg width="32" height="32" viewBox="0 0 32 32" fill="none" xmlns="http://www.w3.org/2000/svg">
<g id="greensock_logo_icon_145217 1">
<path id="Vector" d="M16.9643 31.9322C16.5473 31.8592 16.1153 31.6612 15.8703 31.4422C15.7033 31.2702 15.6103 31.0362 15.6043 30.7962C15.6043 30.5512 15.7293 30.2072 15.9273 29.8642C16.0473 29.6712 16.1413 29.4632 16.2083 29.2442C16.2503 29.0932 16.3383 28.8482 16.4063 28.6922L16.5263 28.4062L16.5573 26.4952C16.5733 25.4382 16.6043 24.4592 16.6303 24.3072C16.6983 23.8692 16.8123 23.4422 16.9633 23.0262L17.0783 22.7502L16.9113 22.6512C16.7603 22.5572 16.6353 22.4272 16.1403 21.8382C15.5313 21.1192 14.7293 20.7232 13.5933 20.5882C13.2233 20.5522 12.8483 20.5252 12.4733 20.5102C10.8063 20.4322 9.85325 20.0832 8.99425 19.2392C8.35325 18.6092 8.02025 17.8742 7.88525 16.7912C7.70325 15.3272 7.50025 14.5772 7.12525 13.9682C7.03125 13.8172 6.92725 13.6762 6.80725 13.5462L6.65625 13.3952L6.32325 13.6092C6.14125 13.7292 5.88525 13.8802 5.76025 13.9482C5.34325 14.1772 4.94725 14.4322 4.56725 14.7082C3.63525 15.3852 2.61925 16.2342 2.06225 16.7912C1.81225 17.0412 1.68225 17.1502 1.62425 17.1402C1.24425 17.0832 1.53525 15.4372 2.15525 14.1972C2.94725 12.5982 4.28025 11.1242 5.82225 10.1292C7.08825 9.31118 9.13525 8.18618 10.0823 7.79018C11.7643 7.08718 13.9413 6.32618 15.4313 5.92018C15.7443 5.83118 15.9363 5.75318 16.0663 5.66518C16.3583 5.46218 16.6443 5.36318 16.9723 5.35818C17.2483 5.35318 17.2743 5.34818 17.5403 5.17018C17.8533 4.96718 17.9463 4.95618 18.2593 5.06618L18.4623 5.13918L18.7123 4.96718L18.9623 4.80018L19.3213 4.80518C19.5973 4.81018 19.7223 4.80018 19.8423 4.74818C19.9933 4.68018 19.9983 4.67018 20.0403 4.42018C20.1343 3.87818 20.1443 3.60718 20.0873 3.27918C20.0143 2.84718 20.0043 1.17018 20.0773 0.84118C20.1553 0.48718 20.2073 0.41418 20.4733 0.28418C20.8693 0.0911797 21.1663 0.0341797 21.8483 0.0341797C22.6813 0.0341797 23.1033 0.14918 23.4163 0.45118C23.6973 0.72218 23.7443 1.35718 23.5983 2.84718C23.5093 3.70618 23.4993 3.94618 23.5253 4.50818C23.5353 4.86718 23.5613 5.20618 23.5723 5.25318C23.5933 5.34218 23.6143 5.34718 23.9163 5.35218C24.2133 5.35718 24.2653 5.37318 24.5463 5.51918C24.8173 5.66018 25.0203 5.83218 25.0623 5.95718C25.0673 5.98318 25.1143 5.98318 25.1973 5.95718C25.3583 5.91018 25.4993 5.96218 25.6143 6.10318C25.6823 6.19218 25.7233 6.20718 25.8803 6.20718C26.0943 6.20718 26.1723 6.25918 26.3493 6.52018C26.4323 6.64018 26.5473 6.72818 26.6773 6.78618C26.9693 6.93218 27.3653 7.33818 27.5163 7.66118C27.7503 8.14018 27.7973 8.69718 27.6513 9.19718C27.5993 9.38518 27.5993 9.39018 27.7083 9.57218C27.9373 9.96318 28.0213 10.4422 27.9273 10.8482L27.8753 11.0882L28.0313 11.2442C28.8073 12.0202 28.6923 13.2862 27.7453 14.4162C27.6463 14.5362 27.5263 14.7232 27.4793 14.8382C27.2973 15.3222 27.0883 15.6612 26.8183 15.9422L26.5423 16.2232H26.2613C25.9803 16.2232 25.5843 16.1292 25.3443 16.0042C25.2453 15.9522 25.2403 15.9522 25.2613 16.0142C25.3243 16.2432 25.4803 17.1752 25.5323 17.6912C25.6153 18.4832 25.5893 19.6342 25.4803 20.1292C25.4023 20.4942 25.2663 20.8482 25.0843 21.1762C24.9803 21.3432 24.9753 21.3792 24.9953 21.5822C25.0263 21.8682 24.9593 22.3482 24.8443 22.6652C24.7033 23.0352 24.6513 23.2072 24.6203 23.3942C24.5943 23.5552 24.5943 23.5552 24.7093 23.5552C24.8603 23.5552 24.9433 23.6442 24.9433 23.8212C24.9433 23.8992 24.8753 24.3212 24.7923 24.7532C24.5633 25.9672 24.5473 26.1022 24.5473 27.2792C24.5423 28.4932 24.5423 28.4822 24.8183 28.6642L25.4383 29.0652C25.9693 29.4192 26.5423 29.7112 27.1413 29.9402C28.0113 30.2842 28.1313 30.3722 28.1313 30.6642C28.1313 30.7942 28.1053 30.8412 27.9963 30.9452C27.6633 31.2682 27.0063 31.3412 25.6833 31.2002C24.9953 31.1372 24.3033 31.1012 23.6153 31.1012C21.7923 31.0752 21.5263 31.0122 21.2873 30.5592C21.1523 30.2992 21.1783 29.9602 21.3653 29.4032C21.4483 29.1582 21.5213 28.9082 21.5843 28.6532C21.7093 28.0492 21.6263 27.3302 21.3343 26.5182L21.0843 25.8252C20.8393 25.1222 20.7043 23.8352 20.8503 23.5442C20.8763 23.4872 20.9233 23.4762 21.0483 23.4812L21.2043 23.4972L21.3343 23.2262C21.4333 23.0122 21.5423 22.8722 21.8393 22.5752L22.2193 22.1952L22.1983 21.9502C22.1823 21.7162 21.8753 20.5802 21.8333 20.5852C21.8173 20.5852 21.7343 20.7002 21.6403 20.8452C21.4113 21.1892 20.9063 21.7202 20.6193 21.9132C20.4943 21.9962 20.3903 22.0952 20.3903 22.1272C20.3853 22.2682 20.2653 22.5442 20.1193 22.7362C19.9783 22.9242 19.9683 22.9552 19.9893 23.1212C20.0253 23.3662 19.9473 24.1522 19.8543 24.5642C19.7713 24.8662 19.6563 25.1632 19.5103 25.4492C19.1513 26.1942 18.8803 26.8602 18.8123 27.1682C18.7603 27.4652 18.7343 27.7672 18.7183 28.0642C18.7023 28.4182 18.6663 28.7622 18.6403 28.8352C18.6043 28.9342 18.6043 29.0122 18.6353 29.1632C18.6613 29.2722 18.6773 29.5172 18.6713 29.7102C18.6663 29.9762 18.6873 30.1482 18.7653 30.4602C18.9003 30.9912 18.9263 31.3252 18.8643 31.5232C18.8223 31.6482 18.7813 31.6952 18.6403 31.7632C18.3273 31.9242 17.4423 32.0132 16.9633 31.9302L16.9643 31.9322ZM13.4173 19.9792C14.7503 19.5942 16.4953 18.4632 17.9223 17.0472C18.3863 16.5832 18.4433 16.5212 18.5053 16.3132L18.5883 16.0472C18.5983 16.0262 18.5153 15.9902 18.4063 15.9642C18.1203 15.8962 17.9013 15.7302 17.9013 15.5792C17.9013 15.4902 17.8493 15.4022 17.6983 15.2402C17.4533 14.9642 17.3913 14.8442 17.3653 14.5792L17.3443 14.3652L17.0523 14.1572C16.8853 14.0372 16.3023 13.7142 15.6823 13.4022C15.2133 13.1732 14.7503 12.9232 14.2973 12.6522C13.7763 12.3032 13.4273 11.8862 13.2293 11.3922C13.1933 11.2932 13.1463 11.2102 13.1303 11.2102C13.0883 11.2102 11.9163 12.3402 11.4163 12.8712C10.1823 14.1732 9.33325 15.3032 8.79625 16.3502C8.66125 16.6102 8.51525 16.9182 8.47325 17.0322L8.39525 17.2402L8.48925 17.5892C8.54625 17.7772 8.66625 18.0842 8.76025 18.2662C9.08825 18.9122 9.47925 19.3022 10.1253 19.6202C10.8183 19.9642 11.4323 20.0842 12.4583 20.0682C13.0103 20.0632 13.1723 20.0472 13.4163 19.9742L13.4173 19.9792ZM25.6723 13.7082C26.2763 13.7292 26.3073 13.6822 25.9853 13.3072C25.6463 12.9162 25.5533 12.5992 25.6783 12.2502L25.7303 12.1152L25.5163 12.0112C25.4433 11.9752 25.3703 11.9382 25.2973 11.9122C25.2613 12.0532 25.2243 12.1882 25.1933 12.3292C25.1153 12.6472 25.0213 13.4702 25.0163 13.8192C25.0163 13.8502 25.0683 13.8402 25.1573 13.7832C25.2823 13.7102 25.3453 13.7002 25.6733 13.7102L25.6723 13.7082ZM19.3393 13.1042C19.3493 13.0882 19.3133 12.7862 19.2453 12.4372C19.1623 11.9632 19.1153 11.7912 19.0633 11.7442C19.0273 11.7132 18.8343 11.5772 18.6413 11.4372C18.3863 11.2552 18.1463 11.0522 17.9223 10.8382L17.5633 10.4842L17.3703 10.5832L17.1673 10.6922C17.1833 10.7752 17.2143 10.8532 17.2503 10.9262C17.3073 11.0512 17.4223 11.3582 17.5053 11.6082C17.7243 12.2592 17.8963 12.5722 18.3283 13.1392L18.4893 13.3532L18.7963 13.4002C18.9683 13.4262 19.1403 13.4632 19.1873 13.4782C19.2603 13.5092 19.2703 13.4942 19.2913 13.3272C19.3013 13.2542 19.3173 13.1762 19.3383 13.1032L19.3393 13.1042Z" fill="white"/>
</g>
</svg>
