<svg width="32" height="32" viewBox="0 0 32 32" fill="none" xmlns="http://www.w3.org/2000/svg">
<g id="akar-icons:react-fill">
<g id="Group">
<g id="Clip path group">
<mask id="mask0_2619_406" style="mask-type:luminance" maskUnits="userSpaceOnUse" x="2" y="2" width="28" height="28">
<g id="akarIconsReactFill0">
<path id="Vector" d="M2 2H30V30H2V2Z" fill="white"/>
</g>
</mask>
<g mask="url(#mask0_2619_406)">
<g id="Group_2">
<path id="Vector_2" d="M30 15.637C30 13.782 27.6772 12.0238 24.1153 10.9342C24.9378 7.30467 24.5727 4.416 22.9627 3.49084C22.5726 3.27234 22.131 3.16236 21.684 3.17234V4.444C21.9465 4.444 22.1577 4.4965 22.335 4.59334C23.1108 5.039 23.448 6.733 23.1855 8.9135C23.1225 9.45017 23.0198 10.0148 22.8938 10.5912C21.7011 10.3037 20.4905 10.096 19.2702 9.96934C18.5432 8.96634 17.75 8.013 16.896 7.11567C18.7568 5.38667 20.5033 4.43934 21.691 4.43934V3.1665C20.1207 3.1665 18.0662 4.28534 15.9883 6.2255C13.9117 4.29817 11.856 3.18984 10.2868 3.18984V4.4615C11.4687 4.4615 13.221 5.40417 15.0818 7.1215C14.2827 7.9615 13.4835 8.9135 12.724 9.96934C11.5011 10.0946 10.2884 10.3043 9.0945 10.597C8.96832 10.0508 8.86904 9.49865 8.797 8.94267C8.52867 6.761 8.86 5.067 9.63117 4.61667C9.8015 4.514 10.0243 4.46734 10.2868 4.46734V3.19567C9.8085 3.19567 9.37333 3.29834 8.99767 3.51417C7.3935 4.43934 7.03417 7.321 7.86133 10.94C4.31117 12.0367 2 13.7878 2 15.637C2 17.492 4.32283 19.2502 7.88467 20.3387C7.06217 23.9693 7.42733 26.858 9.03733 27.782C9.40833 27.999 9.84233 28.1017 10.3207 28.1017C11.891 28.1017 13.9455 26.9828 16.0233 25.0427C18.1 26.9712 20.1545 28.0783 21.7248 28.0783C22.1753 28.0879 22.6202 27.9775 23.014 27.7587C24.6182 26.8347 24.9775 23.953 24.1503 20.334C27.6888 19.2443 30 17.4862 30 15.637ZM22.5683 11.8302C22.3466 12.593 22.0897 13.3451 21.7983 14.0842C21.3214 13.1564 20.7976 12.2534 20.2292 11.3787C21.04 11.4988 21.8217 11.647 22.5695 11.8302H22.5683ZM19.955 17.9085C19.5277 18.6545 19.0688 19.382 18.5795 20.089C16.8671 20.2399 15.1449 20.2419 13.4322 20.0948C12.4498 18.6915 11.5906 17.2059 10.8643 15.6545C11.5895 14.0995 12.445 12.6086 13.4217 11.1978C15.1336 11.0466 16.8555 11.0443 18.5678 11.1908C19.0415 11.8698 19.5047 12.5955 19.9492 13.3608C20.3832 14.1075 20.7775 14.8658 21.1368 15.6312C20.7735 16.4058 20.3793 17.1655 19.955 17.9085ZM21.7983 17.1665C22.1063 17.9307 22.37 18.696 22.5858 19.438C21.8392 19.6212 21.0505 19.7752 20.235 19.8942C20.8011 19.0115 21.3229 18.1011 21.7983 17.1665ZM16.0117 23.2565C15.4808 22.7082 14.95 22.098 14.425 21.4295C14.9383 21.4528 15.4633 21.4703 15.9942 21.4703C16.5308 21.4703 17.0617 21.4587 17.5808 21.4295C17.0675 22.098 16.5367 22.7082 16.0117 23.2565ZM11.765 19.8942C10.9784 19.7802 10.1974 19.6299 9.42467 19.4438C9.63583 18.7077 9.89833 17.9482 10.1947 17.1898C10.4292 17.6448 10.6753 18.1022 10.9437 18.5595C11.212 19.0157 11.485 19.4613 11.765 19.8942ZM15.9825 8.0175C16.5133 8.56584 17.0442 9.176 17.5692 9.8445C17.0558 9.82117 16.5308 9.80367 16 9.80367C15.4633 9.80367 14.9325 9.81534 14.4133 9.8445C14.9267 9.176 15.4575 8.56584 15.9825 8.0175ZM11.7592 11.3798C11.1932 12.2606 10.6714 13.169 10.1958 14.1017C9.89625 13.3579 9.63343 12.5998 9.40833 11.8302C10.155 11.6528 10.9437 11.4988 11.7592 11.3798ZM6.59433 18.5245C4.57367 17.6635 3.267 16.533 3.267 15.637C3.267 14.741 4.57367 13.6047 6.59433 12.7495C7.08433 12.5383 7.621 12.3493 8.17517 12.1732C8.50067 13.2908 8.92883 14.4552 9.4585 15.6487C8.95843 16.7712 8.5355 17.9266 8.19267 19.1067C7.65069 18.9389 7.11727 18.7446 6.59433 18.5245ZM9.665 26.6795C8.88917 26.2362 8.552 24.5398 8.8145 22.3605C8.8775 21.8238 8.98017 21.258 9.10617 20.6817C10.2238 20.9558 11.4453 21.167 12.7298 21.3047C13.4569 22.3076 14.25 23.261 15.104 24.1583C13.2432 25.8873 11.4967 26.8347 10.309 26.8347C10.0849 26.8371 9.86372 26.7842 9.665 26.6807V26.6795ZM23.203 22.3313C23.4713 24.5118 23.14 26.207 22.3688 26.6573C22.1985 26.76 21.9757 26.8055 21.7132 26.8055C20.5313 26.8055 18.779 25.864 16.9182 24.1455C17.7686 23.2519 18.5564 22.3008 19.276 21.2988C20.4989 21.1736 21.7116 20.9639 22.9055 20.6712C23.0373 21.2475 23.1388 21.8005 23.203 22.3313ZM25.3998 18.5245C24.9098 18.7357 24.3732 18.9247 23.819 19.1008C23.4701 17.9147 23.0414 16.7536 22.5357 15.6253C23.0607 14.4388 23.4818 13.2803 23.8015 12.1673C24.3452 12.3357 24.8805 12.53 25.4057 12.7495C27.4263 13.6105 28.733 14.741 28.733 15.637C28.7272 16.533 27.4205 17.6693 25.3998 18.5245Z" fill="white"/>
<path id="Vector_3" d="M15.9934 18.2457C16.6853 18.2457 17.3488 17.9708 17.838 17.4816C18.3273 16.9924 18.6021 16.3288 18.6021 15.637C18.6021 14.9451 18.3273 14.2816 17.838 13.7924C17.3488 13.3032 16.6853 13.0283 15.9934 13.0283C15.3016 13.0283 14.638 13.3032 14.1488 13.7924C13.6596 14.2816 13.3848 14.9451 13.3848 15.637C13.3848 16.3288 13.6596 16.9924 14.1488 17.4816C14.638 17.9708 15.3016 18.2457 15.9934 18.2457Z" fill="white"/>
</g>
</g>
</g>
</g>
</g>
</svg>
