<svg width="32" height="32" viewBox="0 0 32 32" fill="none" xmlns="http://www.w3.org/2000/svg">
<path d="M16.0003 2.66699C17.7513 2.66699 19.4851 3.01187 21.1028 3.68193C22.7204 4.35199 24.1903 5.33412 25.4284 6.57224C26.6665 7.81035 27.6487 9.2802 28.3187 10.8979C28.9888 12.5156 29.3337 14.2494 29.3337 16.0003C29.3337 19.5365 27.9289 22.9279 25.4284 25.4284C22.9279 27.9289 19.5365 29.3337 16.0003 29.3337C14.2494 29.3337 12.5156 28.9888 10.8979 28.3187C9.2802 27.6487 7.81035 26.6665 6.57224 25.4284C4.07175 22.9279 2.66699 19.5365 2.66699 16.0003C2.66699 12.4641 4.07175 9.07272 6.57224 6.57224C9.07272 4.07175 12.4641 2.66699 16.0003 2.66699ZM13.3337 20.4403C13.547 21.1603 13.5203 21.827 13.3337 22.4403C13.3337 22.507 13.2803 22.5737 13.2537 22.667C13.227 22.667 13.2003 22.7603 13.1603 22.827C13.0137 23.147 12.8003 23.4537 12.547 23.7203C11.7737 24.5737 10.667 24.8937 10.227 24.627C9.72033 24.3337 10.0003 23.1337 10.8803 22.187C11.8403 21.1737 13.227 20.507 13.227 20.507L13.3337 20.4403ZM24.3603 8.37366C23.7603 6.00033 19.827 5.22699 16.1203 6.54699C13.907 7.33366 11.507 8.56033 9.78699 10.1737C7.74699 12.0937 7.41366 13.7603 7.54699 14.4537C8.00033 16.907 11.387 18.5203 12.7737 19.707V19.7203C12.3737 19.9203 9.38699 21.427 8.66699 22.9737C7.94699 24.6003 8.80033 25.7737 9.33366 25.9337C11.1203 26.4137 12.9203 25.547 13.8803 24.0937C14.8137 22.707 14.747 20.907 14.3337 20.0003C14.8937 19.867 15.547 19.8003 16.3737 19.8937C18.7203 20.1737 19.1737 21.627 19.0803 22.2403C19.0003 22.8537 18.507 23.187 18.347 23.2937C18.187 23.387 18.1337 23.427 18.147 23.507C18.1603 23.6137 18.2403 23.6137 18.3737 23.587C18.5737 23.547 19.6137 23.0937 19.6537 21.9603C19.707 20.5203 18.3337 18.9203 15.907 18.9603C14.907 18.987 14.2803 19.0803 13.827 19.2537L13.7203 19.1337C12.2137 17.5337 9.44033 16.4003 9.56033 14.2403C9.60033 13.4537 9.86699 11.4003 14.8937 8.89366C19.0003 6.84033 22.2937 7.40033 22.867 8.66699C23.6803 10.4403 21.107 13.7603 16.8403 14.2403C15.2137 14.427 14.347 13.787 14.1337 13.5603C13.907 13.3337 13.8803 13.2937 13.8003 13.3337C13.6537 13.427 13.747 13.6403 13.8003 13.7737C13.9203 14.107 14.4537 14.667 15.3337 14.987C16.1203 15.2403 18.0403 15.387 20.347 14.4937C22.9337 13.4937 24.9603 10.707 24.3603 8.37366Z" fill="white"/>
</svg>
